<svg xmlns="http://www.w3.org/2000/svg" width="190" height="165" viewBox="0 0 190 165">
  <title>Skid logo</title>
  <defs>
    <linearGradient x2="1" id="gradient">
      <stop stop-color="#006EFF" offset="0" />
      <stop stop-color="#FF00AB" offset="1" />
    </linearGradient>
  </defs>
  <path fill="#404040" d="M61.275 127.938c-2.017 1.668-4.602 2.502-7.755 2.502-2.127 0-4.336-.385-6.628-1.155-2.29-.77-4.317-1.852-6.077-3.245l2.97-4.785c3.41 2.567 6.71 3.85 9.9 3.85 1.393 0 2.493-.32 3.3-.963.807-.64 1.21-1.457 1.21-2.447 0-1.467-1.943-2.787-5.83-3.96-.293-.11-.513-.183-.66-.22-6.087-1.65-9.13-4.4-9.13-8.25 0-2.713 1.054-4.886 3.162-6.517 2.11-1.632 4.85-2.448 8.223-2.448 3.373 0 6.563.99 9.57 2.97l-2.31 4.565c-2.383-1.577-4.968-2.365-7.755-2.365-1.467 0-2.658.266-3.575.797-.917.532-1.375 1.33-1.375 2.393 0 .953.477 1.65 1.43 2.09.66.33 1.586.642 2.777.935 1.192.293 2.246.587 3.163.88.917.293 1.806.623 2.668.99.86.367 1.787.88 2.777 1.54 1.98 1.32 2.97 3.373 2.97 6.16s-1.008 5.014-3.025 6.683zM78.745 130h-6.16V89.19h6.16v23.98l11.88-12.43h7.92l-11.11 11.605L99.37 130h-7.48l-8.69-12.815-4.455 4.51V130zM112 130h-6.16v-29.26H112V130zm-6.93-37.84c0-1.063.385-1.98 1.155-2.75s1.687-1.155 2.75-1.155 1.98.385 2.75 1.155 1.155 1.687 1.155 2.75-.385 1.98-1.155 2.75-1.687 1.155-2.75 1.155-1.98-.385-2.75-1.155-1.155-1.687-1.155-2.75zm19.395 34.1c-2.75-2.787-4.125-6.453-4.125-11s1.412-8.177 4.235-10.89c2.823-2.713 6.187-4.07 10.092-4.07 3.906 0 7.05 1.65 9.433 4.95V89.19h6.16V130h-6.16v-4.4c-2.273 3.227-5.592 4.84-9.955 4.84-3.703 0-6.93-1.393-9.68-4.18zm4.73-3.905c1.797 1.76 3.905 2.64 6.325 2.64 2.42 0 4.473-.89 6.16-2.668 1.687-1.778 2.53-4.06 2.53-6.847 0-2.787-.843-5.115-2.53-6.985-1.687-1.87-3.758-2.805-6.215-2.805s-4.565.935-6.325 2.805c-1.76 1.87-2.64 4.207-2.64 7.012 0 2.806.898 5.088 2.695 6.848z" />
  <path fill="url(#gradient)" d="M136.668 41.37s.97-.777 1.476.232c.504 1.01 1.553 2.835 1.553 2.835s.427 1.127-.466 2.37c-.892 1.242-2.33 2.252-2.33 3.223 0 .97 1.282 2.796 1.282 2.796s.156.816-.543 1.204c-.7.388-3.846.388-3.846.388l-2.913 1.864s-1.047.428-1.475 0c-.427-.427-2.485-4.233-2.485-4.233s-.388-1.282 0-1.67c.388-.39 2.64-2.603 2.64-3.69 0-1.087-.504-1.903-.504-1.903s-.078-1.282.815-1.282c.895 0 3.808-.233 3.808-.233l2.99-1.903zm7.026 23.758H134.8l-2.912-4.62s-.816-1.127.62-2.215c1.438-1.087 1.943-1.087 1.943-1.087h4.234s.796.02 1.36.582c.562.564 3.65 7.34 3.65 7.34zM123.324 33h8.893l2.913 4.622s.816 1.126-.62 2.213c-1.438 1.088-1.943 1.088-1.943 1.088h-4.233s-.797-.02-1.36-.583c-.563-.563-3.65-7.34-3.65-7.34zm1.44 8.37s.97-.777 1.475.232c.504 1.01 1.553 2.835 1.553 2.835s.427 1.127-.467 2.37c-.893 1.242-2.33 2.252-2.33 3.223 0 .97 1.282 2.796 1.282 2.796s.155.816-.544 1.204c-.7.388-3.845.388-3.845.388l-2.913 1.864s-1.05.428-1.476 0c-.426-.427-2.485-4.233-2.485-4.233s-.388-1.282 0-1.67c.39-.39 2.64-2.603 2.64-3.69 0-1.087-.504-1.903-.504-1.903s-.076-1.282.817-1.282c.893 0 3.806-.233 3.806-.233l2.99-1.903zm7.224 23.758h-8.894l-2.913-4.62s-.814-1.127.623-2.215c1.436-1.087 1.942-1.087 1.942-1.087h4.233s.796.02 1.36.582c.562.564 3.65 7.34 3.65 7.34zM111.618 33h8.893l2.914 4.622s.816 1.126-.622 2.213c-1.436 1.088-1.94 1.088-1.94 1.088h-4.234s-.797-.02-1.36-.583c-.563-.563-3.65-7.34-3.65-7.34zm1.043 8.37s.97-.777 1.476.232c.505 1.01 1.554 2.835 1.554 2.835s.427 1.127-.466 2.37c-.893 1.242-2.33 2.252-2.33 3.223 0 .97 1.28 2.796 1.28 2.796s.157.816-.543 1.204c-.698.388-3.843.388-3.843.388l-2.913 1.864s-1.05.428-1.476 0c-.427-.427-2.486-4.233-2.486-4.233s-.388-1.282 0-1.67c.39-.39 2.64-2.603 2.64-3.69 0-1.087-.503-1.903-.503-1.903s-.08-1.282.814-1.282c.893 0 3.806-.233 3.806-.233l2.99-1.903zm7.225 23.758h-8.894l-2.912-4.62s-.815-1.127.622-2.215c1.437-1.087 1.942-1.087 1.942-1.087h4.233s.796.02 1.36.582c.562.564 3.65 7.34 3.65 7.34zM99.515 33h8.893l2.913 4.622s.817 1.126-.62 2.213c-1.437 1.088-1.942 1.088-1.942 1.088h-4.233s-.797-.02-1.36-.583c-.563-.563-3.65-7.34-3.65-7.34zm1.043 8.37s.97-.777 1.475.232c.505 1.01 1.554 2.835 1.554 2.835s.427 1.127-.466 2.37c-.892 1.242-2.33 2.252-2.33 3.223 0 .97 1.282 2.796 1.282 2.796s.156.816-.544 1.204c-.7.388-3.844.388-3.844.388l-2.913 1.864s-1.048.428-1.475 0c-.427-.427-2.485-4.233-2.485-4.233s-.39-1.282 0-1.67c.388-.39 2.64-2.603 2.64-3.69 0-1.087-.504-1.903-.504-1.903s-.078-1.282.815-1.282c.895 0 3.807-.233 3.807-.233l2.99-1.903zm7.224 23.758h-8.894l-2.912-4.62s-.816-1.127.62-2.215c1.438-1.087 1.943-1.087 1.943-1.087h4.232s.796.02 1.36.582c.562.564 3.65 7.34 3.65 7.34zM87.412 33h8.893l2.913 4.622s.816 1.126-.62 2.213c-1.438 1.088-1.943 1.088-1.943 1.088h-4.233s-.796-.02-1.36-.583c-.563-.563-3.65-7.34-3.65-7.34zm1.043 8.37s.97-.777 1.475.232c.505 1.01 1.554 2.835 1.554 2.835s.427 1.127-.466 2.37c-.893 1.242-2.33 2.252-2.33 3.223 0 .97 1.28 2.796 1.28 2.796s.157.816-.543 1.204c-.7.388-3.844.388-3.844.388l-2.912 1.864s-1.05.428-1.476 0c-.427-.427-2.485-4.233-2.485-4.233s-.39-1.282 0-1.67c.388-.39 2.64-2.603 2.64-3.69 0-1.087-.504-1.903-.504-1.903s-.078-1.282.815-1.282c.894 0 3.806-.233 3.806-.233l2.99-1.903zm7.224 23.758h-8.895l-2.912-4.62s-.816-1.127.62-2.215c1.438-1.087 1.943-1.087 1.943-1.087h4.233s.795.02 1.358.582c.563.564 3.65 7.34 3.65 7.34zM75.31 33H84.2l2.913 4.622s.816 1.126-.62 2.213c-1.438 1.088-1.943 1.088-1.943 1.088H80.32s-.797-.02-1.36-.583c-.564-.563-3.65-7.34-3.65-7.34zm1.042 8.37s.97-.777 1.475.232c.505 1.01 1.554 2.835 1.554 2.835s.428 1.127-.465 2.37c-.893 1.242-2.33 2.252-2.33 3.223 0 .97 1.28 2.796 1.28 2.796s.157.816-.542 1.204c-.7.388-3.845.388-3.845.388l-2.913 1.864s-1.048.428-1.476 0c-.428-.427-2.486-4.233-2.486-4.233s-.39-1.282 0-1.67c.388-.39 2.64-2.603 2.64-3.69 0-1.087-.504-1.903-.504-1.903s-.078-1.282.815-1.282c.894 0 3.806-.233 3.806-.233l2.992-1.903zm7.224 23.758h-8.894l-2.912-4.62s-.816-1.127.62-2.215c1.438-1.087 1.943-1.087 1.943-1.087h4.233s.796.02 1.36.582c.562.564 3.65 7.34 3.65 7.34zM63.206 33H72.1l2.912 4.622s.816 1.126-.62 2.213c-1.438 1.088-1.943 1.088-1.943 1.088h-4.234s-.796-.02-1.36-.583c-.563-.563-3.65-7.34-3.65-7.34zm1.043 8.37s.97-.777 1.475.232c.504 1.01 1.553 2.835 1.553 2.835s.427 1.127-.466 2.37c-.893 1.242-2.33 2.252-2.33 3.223 0 .97 1.28 2.796 1.28 2.796s.157.816-.542 1.204c-.7.388-3.845.388-3.845.388l-2.913 1.864s-1.048.428-1.476 0c-.427-.427-2.485-4.233-2.485-4.233s-.388-1.282 0-1.67c.39-.39 2.642-2.603 2.642-3.69 0-1.087-.505-1.903-.505-1.903s-.078-1.282.815-1.282c.894 0 3.806-.233 3.806-.233l2.99-1.903zm7.223 23.758H62.58l-2.913-4.62s-.816-1.127.62-2.215c1.438-1.087 1.943-1.087 1.943-1.087h4.233s.796.02 1.36.582c.562.564 3.65 7.34 3.65 7.34zM51.103 33h8.894l2.912 4.622s.815 1.126-.622 2.213c-1.437 1.088-1.942 1.088-1.942 1.088h-4.233s-.796-.02-1.36-.583c-.563-.563-3.65-7.34-3.65-7.34zm1.24 8.37s.972-.777 1.477.232c.505 1.01 1.553 2.835 1.553 2.835s.428 1.127-.466 2.37c-.893 1.242-2.33 2.252-2.33 3.223 0 .97 1.282 2.796 1.282 2.796s.154.816-.545 1.204c-.7.388-3.845.388-3.845.388l-2.913 1.864s-1.048.428-1.475 0c-.427-.427-2.486-4.233-2.486-4.233s-.388-1.282 0-1.67c.39-.39 2.64-2.603 2.64-3.69 0-1.087-.504-1.903-.504-1.903s-.077-1.282.816-1.282c.893 0 3.806-.233 3.806-.233l2.99-1.903zm7.027 23.758h-8.894l-2.912-4.62s-.816-1.127.62-2.215c1.438-1.087 1.943-1.087 1.943-1.087h4.233s.796.02 1.36.582c.562.564 3.65 7.34 3.65 7.34zM39 33h8.894l2.912 4.622s.816 1.126-.62 2.213c-1.438 1.088-1.943 1.088-1.943 1.088H44.01s-.796-.02-1.36-.583C42.088 39.777 39 33 39 33z" />
</svg>
